HIERARCHY
ROOT Hips
{
	OFFSET 0.00 0.00 0.00
	CHANNELS 6 Xposition Yposition Zposition Xrotation Yrotation Zrotation
	JOINT LeftUpLeg
	{
		OFFSET 3.10215 0.00000 0.00000
		CHANNELS 3 Xrotation Yrotation Zrotation
		JOINT LeftLeg
		{
			OFFSET 0.00000 -16.83331 0.00000
			CHANNELS 3 Xrotation Yrotation Zrotation
			JOINT LeftFoot
			{
				OFFSET 0.00000 -15.53879 0.00000
				CHANNELS 3 Xrotation Yrotation Zrotation
				JOINT LeftToeBase
				{
					OFFSET 0.00000 -1.57366 5.87297
					CHANNELS 3 Xrotation Yrotation Zrotation
					End Site
					{
						OFFSET 0.00000 0.00000 2.95275
					}
				}
			}
		}
	}
	JOINT RightUpLeg
	{
		OFFSET -3.10215 0.00000 0.00000
		CHANNELS 3 Xrotation Yrotation Zrotation
		JOINT RightLeg
		{
			OFFSET 0.00000 -16.83331 0.00000
			CHANNELS 3 Xrotation Yrotation Zrotation
			JOINT RightFoot
			{
				OFFSET 0.00000 -15.53879 0.00000
				CHANNELS 3 Xrotation Yrotation Zrotation
				JOINT RightToeBase
				{
					OFFSET 0.00000 -1.57366 5.87297
					CHANNELS 3 Xrotation Yrotation Zrotation
					End Site
					{
						OFFSET 0.00000 0.00000 2.95275
					}
				}
			}
		}
	}
	JOINT Spine
	{
		OFFSET 0.00000 0.03937 0.00000
		CHANNELS 3 Xrotation Yrotation Zrotation
		JOINT Spine1
		{
			OFFSET 0.00000 8.31046 0.00000
			CHANNELS 3 Xrotation Yrotation Zrotation
			JOINT Neck
			{
				OFFSET 0.00000 6.25463 0.00000
				CHANNELS 3 Xrotation Yrotation Zrotation
				JOINT Head
				{
					OFFSET 0.00000 8.60817 0.00000
					CHANNELS 3 Xrotation Yrotation Zrotation
					End Site
					{
						OFFSET 0.00000 4.52755 0.00000
					}
				}
			}
			JOINT LeftShoulder
			{
				OFFSET 0.00000 6.25463 0.00000
				CHANNELS 3 Xrotation Yrotation Zrotation
				JOINT LeftArm
				{
					OFFSET 7.44857 -0.00003 0.00000
					CHANNELS 3 Xrotation Yrotation Zrotation
					JOINT LeftForeArm
					{
						OFFSET 10.73545 -0.00004 0.00000
						CHANNELS 3 Xrotation Yrotation Zrotation
						JOINT LeftHand
						{
							OFFSET 10.15840 -0.00004 0.00000
							CHANNELS 3 Xrotation Yrotation Zrotation
							JOINT LeftHandThumb
							{
								OFFSET 0.00000 0.00000 0.00000
								CHANNELS 3 Xrotation Yrotation Zrotation
								End Site
								{
									OFFSET 0.00000 0.00000 3.93700
								}
							}
							JOINT L_Wrist_End
							{
								OFFSET 3.93700 -0.00001 0.00000
								CHANNELS 3 Xrotation Yrotation Zrotation
							}
						}
					}
				}
			}
			JOINT RightShoulder
			{
				OFFSET 0.00000 6.25463 0.00000
				CHANNELS 3 Xrotation Yrotation Zrotation
				JOINT RightArm
				{
					OFFSET -7.44857 -0.00003 0.00000
					CHANNELS 3 Xrotation Yrotation Zrotation
					JOINT RightForeArm
					{
						OFFSET -10.73545 -0.00004 0.00000
						CHANNELS 3 Xrotation Yrotation Zrotation
						JOINT RightHand
						{
							OFFSET -10.15840 -0.00004 0.00000
							CHANNELS 3 Xrotation Yrotation Zrotation
							JOINT RightHandThumb
							{
								OFFSET 0.00000 0.00000 0.00000
								CHANNELS 3 Xrotation Yrotation Zrotation
								End Site
								{
									OFFSET 0.00000 0.00000 3.93700
								}
							}
							JOINT R_Wrist_End
							{
								OFFSET -5.39369 -0.00002 0.00000
								CHANNELS 3 Xrotation Yrotation Zrotation
							}
						}
					}
				}
			}
		}
	}
}
MOTION
Frames: 11
Frame Time: 0.008333
 -114.9630 33.5999 1.5683 96.2532 83.1138 -99.3375 -5.1772 9.6689 15.3773 6.5329 -0.0000 -0.0000 -9.8730 13.4579 -32.1158 -2.4923 0.0000 -0.0000 -0.1685 2.6364 -1.4692 8.0054 0.0000 0.0000 -20.8346 -15.2521 -0.3522 2.5460 -0.0000 -0.0000 -6.9985 2.6243 4.2261 -0.9756 0.8025 -1.2452 18.7540 12.3696 2.9227 -14.4111 -10.3910 -4.0516 17.1883 -2.0584 23.7904 -1.9550 15.9266 -71.0240 -0.0003 -56.4748 -0.0002 -9.2444 11.1874 -16.6622 0.0000 -0.0000 0.0000 0.0000 -0.0000 0.0000 18.1304 -4.0390 -19.6726 -1.4697 -18.8526 76.8313 -0.0002 39.3848 0.0001 -31.6430 21.4351 19.0531 -0.0000 0.0000 -0.0000 -0.0000 0.0000 -0.0000
 -114.9237 33.5974 1.6052 98.1011 82.7513 -101.1487 -6.0052 9.0115 15.3945 7.9069 0.0000 -0.0000 -11.0191 13.6450 -31.0407 -2.4678 0.0000 0.0000 -0.3095 2.5951 -1.4185 7.8496 -0.0000 -0.0000 -20.8415 -15.4747 -0.4428 2.4969 -0.0000 0.0000 -6.9128 2.6333 4.3143 -0.9956 0.7962 -1.3234 18.6296 12.3360 2.8863 -14.5757 -10.5370 -4.1639 17.3175 -2.0453 23.4173 -1.8127 14.3317 -72.8543 -0.0003 -56.8762 -0.0002 -8.9588 10.9120 -17.2707 -0.0000 -0.0000 -0.0000 -0.0000 -0.0000 -0.0000 18.2657 -4.1232 -19.5786 -1.0212 -16.6098 78.8408 -0.0002 38.3994 0.0001 -29.5260 22.1731 17.9420 0.0000 0.0000 -0.0000 0.0000 0.0000 -0.0000
 -114.8757 33.5967 1.6345 99.8500 82.4189 -102.7966 -6.7890 8.3605 15.3058 9.3560 0.0000 -0.0000 -12.3590 13.8016 -29.6105 -2.4164 -0.0000 0.0000 -0.3795 2.6287 -1.4382 7.6672 0.0000 -0.0000 -20.8643 -15.7659 -0.6251 2.5535 -0.0000 0.0000 -6.8522 2.6514 4.3841 -0.9457 0.8041 -1.4448 18.5425 12.2969 2.8516 -14.8093 -10.6768 -4.3010 17.4188 -2.0560 23.0174 -1.8103 12.6549 -74.5399 -0.0003 -57.1949 -0.0002 -8.8592 10.5058 -17.7284 0.0000 -0.0000 -0.0000 0.0000 -0.0000 -0.0000 18.3946 -4.1330 -19.4742 -0.6798 -14.4650 80.7597 -0.0002 37.4093 0.0001 -27.2993 22.8474 16.7800 0.0000 0.0000 -0.0000 0.0000 0.0000 -0.0000
 -114.8234 33.5954 1.6570 101.4759 82.0827 -104.3061 -7.5827 7.7348 15.1741 10.8668 -0.0000 0.0000 -13.8540 13.8408 -28.1982 -2.2839 0.0000 -0.0000 -0.4349 2.6512 -1.4855 7.4774 0.0000 -0.0000 -20.8714 -16.0585 -0.7772 2.4656 -0.0000 -0.0000 -6.8128 2.6925 4.4603 -0.8618 0.8364 -1.5841 18.4343 12.2099 2.8343 -15.0370 -10.8216 -4.4534 17.5054 -2.1232 22.6458 -1.9340 10.9732 -76.1683 -0.0003 -57.4576 -0.0002 -8.8190 9.9829 -18.0015 -0.0000 0.0000 -0.0000 -0.0000 0.0000 -0.0000 18.5250 -4.1462 -19.3708 -0.4589 -12.4425 82.6020 -0.0002 36.5131 0.0001 -25.1782 23.0180 15.6644 0.0000 0.0000 -0.0000 0.0000 0.0000 -0.0000
 -114.7648 33.5948 1.6703 102.9556 81.7377 -105.6433 -8.2991 7.0298 14.9654 12.3252 0.0000 0.0000 -15.3107 13.8096 -26.9501 -2.2889 -0.0000 -0.0000 -0.4879 2.6579 -1.5730 7.3040 0.0000 -0.0000 -20.9252 -16.3431 -0.9351 2.4837 0.0000 -0.0000 -6.7964 2.7411 4.5374 -0.7810 0.8789 -1.7481 18.3362 12.1022 2.8332 -15.2106 -10.9619 -4.5977 17.5596 -2.2472 22.3184 -2.0658 9.2226 -77.7656 -0.0003 -57.8004 -0.0002 -8.7980 9.7529 -17.5863 0.0000 0.0000 0.0000 0.0000 0.0000 0.0000 18.6818 -4.1086 -19.2693 -0.3168 -10.5563 84.3769 -0.0002 35.6881 0.0000 -23.1498 23.0465 14.4705 -0.0000 -0.0000 0.0000 -0.0000 -0.0000 0.0000
 -114.6945 33.5946 1.6790 104.4050 81.4043 -106.9360 -9.1368 6.5210 14.7410 14.0783 -0.0000 0.0000 -16.6776 13.4429 -26.2384 -2.2515 0.0000 0.0000 -0.4963 2.6125 -1.6813 7.1199 -0.0000 -0.0000 -20.9688 -16.5916 -1.1024 2.4893 0.0000 0.0000 -6.8109 2.7909 4.5994 -0.6796 0.9270 -1.9200 18.2413 11.9845 2.8455 -15.3217 -11.0907 -4.7009 17.6182 -2.4278 22.0715 -2.2005 7.5201 -79.3743 -0.0003 -58.2208 -0.0002 -8.7022 9.4567 -16.6085 0.0000 -0.0000 0.0000 0.0000 -0.0000 0.0000 18.8679 -4.0370 -19.1774 -0.2221 -9.1237 86.0969 -0.0001 34.6642 0.0000 -21.3117 23.7586 14.4269 -0.0000 -0.0000 0.0000 -0.0000 -0.0000 0.0000
 -114.6154 33.5961 1.6839 106.0078 81.1204 -108.3715 -9.8078 5.9088 14.4468 15.8022 -0.0000 0.0000 -17.4607 13.1234 -26.6309 -2.4116 0.0000 0.0000 -0.4017 2.5509 -1.8006 6.8906 0.0000 -0.0000 -20.9805 -16.8461 -1.2956 2.4163 0.0000 0.0000 -6.7766 2.8342 4.6443 -0.5939 0.9648 -2.0859 18.1726 11.8451 2.8733 -15.4242 -11.2048 -4.8211 17.6300 -2.6979 21.7850 -2.3389 5.8434 -80.8441 -0.0003 -58.7471 -0.0002 -8.4848 9.4341 -15.8635 -0.0000 0.0000 0.0000 -0.0000 0.0000 0.0000 18.9810 -3.9687 -19.0358 -0.1983 -7.9107 87.7215 -0.0001 33.6398 0.0000 -20.2642 24.0335 14.4196 -0.0000 0.0000 0.0000 -0.0000 0.0000 0.0000
 -114.5282 33.5950 1.6782 107.3532 80.8906 -109.5296 -10.4191 5.5093 14.0835 17.5554 0.0000 -0.0000 -17.7380 12.6995 -28.4096 -2.4526 0.0000 -0.0000 -0.2756 2.3164 -1.9685 6.7118 -0.0000 -0.0000 -21.0551 -16.8773 -1.4754 2.7103 -0.0000 0.0000 -6.7160 2.8789 4.6539 -0.5102 1.0037 -2.1676 18.1056 11.8376 2.7955 -15.4459 -11.4266 -4.8664 17.6947 -2.9242 21.5246 -2.6019 4.0795 -82.2963 -0.0004 -59.3027 -0.0002 -8.3811 9.3188 -14.9806 0.0000 -0.0000 -0.0000 0.0000 -0.0000 -0.0000 19.2588 -4.0072 -18.9794 -0.4503 -6.7335 89.3019 -0.0001 32.4956 0.0000 -20.0587 24.7976 14.2234 -0.0000 -0.0000 -0.0000 -0.0000 -0.0000 -0.0000
 -114.4286 33.5942 1.6676 108.6190 80.6487 -110.5689 -11.0447 5.2858 13.6501 19.3861 -0.0000 0.0000 -17.8279 11.8504 -30.5397 -2.6148 0.0000 0.0000 -0.1060 2.1747 -2.1783 6.4836 0.0000 0.0000 -21.1076 -17.0325 -1.5993 2.5649 -0.0000 0.0000 -6.6873 2.9033 4.6564 -0.4324 1.0277 -2.3369 18.0393 11.7846 2.7864 -15.4272 -11.5485 -4.9173 17.7766 -3.0648 21.3178 -2.9888 2.3102 -83.6742 -0.0004 -59.9396 -0.0002 -7.9436 9.3415 -14.3547 0.0000 -0.0000 0.0000 0.0000 -0.0000 0.0000 19.4303 -4.0013 -18.8927 -0.6215 -5.6882 90.8060 -0.0001 31.1296 0.0000 -20.4105 26.1120 14.1605 0.0000 0.0000 -0.0000 0.0000 0.0000 -0.0000
 -114.3206 33.5938 1.6503 109.6985 80.4290 -111.3905 -11.6344 5.2212 13.1632 21.2682 -0.0000 0.0000 -17.9177 10.4087 -32.7516 -2.9881 -0.0000 -0.0000 0.0805 1.9913 -2.4319 6.2793 0.0000 -0.0000 -21.1757 -17.1215 -1.7295 2.4908 -0.0000 -0.0000 -6.6497 2.9311 4.6647 -0.3750 1.0550 -2.5719 17.9972 11.7199 2.8041 -15.4115 -11.6338 -4.9590 17.8916 -3.1798 21.1375 -3.4899 0.6054 -84.9763 -0.0004 -60.6353 -0.0002 -7.4438 9.3206 -14.0485 -0.0000 0.0000 0.0000 -0.0000 0.0000 0.0000 19.5946 -4.0273 -18.7641 -0.7690 -5.0451 92.2493 -0.0001 30.1503 0.0000 -21.1276 25.9396 14.3817 -0.0000 -0.0000 0.0000 -0.0000 -0.0000 0.0000
 -114.2043 33.5925 1.6253 110.6959 80.2199 -112.0952 -12.1423 5.1035 12.5991 23.2105 -0.0000 0.0000 -18.2987 8.6433 -34.0926 -3.0789 0.0000 -0.0000 0.2776 1.8221 -2.7345 6.1062 -0.0000 0.0000 -21.2703 -17.2181 -1.8163 2.4158 0.0000 0.0000 -6.6250 2.9407 4.6701 -0.3175 1.0671 -2.8521 17.9924 11.6727 2.8277 -15.4303 -11.6842 -4.9947 17.9962 -3.2776 21.0065 -4.0231 -1.0259 -86.2488 -0.0004 -61.3948 -0.0002 -6.9662 9.2127 -13.9899 -0.0000 -0.0000 -0.0000 -0.0000 -0.0000 -0.0000 19.7299 -4.0701 -18.6652 -0.9086 -4.5934 93.6565 -0.0001 29.1041 0.0000 -22.4712 26.0958 14.5981 -0.0000 0.0000 -0.0000 -0.0000 0.0000 -0.0000
